<svg width="138" height="50" viewBox="0 0 138 50" fill="none" xmlns="http://www.w3.org/2000/svg">
<path d="M0 25C0 11.1929 11.1929 0 25 0C38.8071 0 50 11.1929 50 25C50 38.8071 38.8071 50 25 50C11.1929 50 0 38.8071 0 25Z" fill="#246EB9"/>
<path d="M24.0127 39.1562C22.5804 39.1562 21.3434 38.9935 20.3017 38.668C19.2731 38.3424 18.4007 37.9193 17.6845 37.3984C16.9814 36.8776 16.415 36.2917 15.9853 35.6406C15.5556 34.9766 15.2236 34.306 14.9892 33.6289C14.7679 32.9518 14.6181 32.3008 14.54 31.6758C14.4749 31.0508 14.4423 30.5104 14.4423 30.0547C14.4423 29.8594 14.4554 29.625 14.4814 29.3516C14.5205 29.0651 14.6377 28.7917 14.833 28.5312C15.0283 28.2708 15.3343 28.0495 15.7509 27.8672C16.1806 27.6849 16.7861 27.5938 17.5673 27.5938C17.8278 27.5938 18.1533 27.6133 18.5439 27.6523C18.9345 27.6784 19.3121 27.763 19.6767 27.9062C20.0413 28.0365 20.3538 28.2318 20.6142 28.4922C20.8746 28.7526 21.0048 29.1042 21.0048 29.5469C21.0048 30.25 21.0439 30.8815 21.122 31.4414C21.2132 32.0013 21.3694 32.4766 21.5908 32.8672C21.8121 33.2578 22.1181 33.5573 22.5088 33.7656C22.8994 33.974 23.4007 34.0781 24.0127 34.0781C24.6507 34.0781 25.139 33.9479 25.4775 33.6875C25.8291 33.4271 26.083 33.1341 26.2392 32.8086C26.4215 32.444 26.5257 32.0208 26.5517 31.5391V17.2031H21.4345C20.9137 17.2031 20.3929 17.1771 19.872 17.125C19.3512 17.0729 18.8759 16.9557 18.4463 16.7734C18.0296 16.5911 17.6845 16.3177 17.4111 15.9531C17.1507 15.5885 17.0205 15.0938 17.0205 14.4688C17.0205 13.8307 17.1507 13.3229 17.4111 12.9453C17.6845 12.5677 18.0296 12.2878 18.4463 12.1055C18.8759 11.9102 19.3512 11.7865 19.872 11.7344C20.3929 11.6823 20.9137 11.6562 21.4345 11.6562H29.4033C30.1455 11.6562 30.7314 11.7865 31.1611 12.0469C31.6038 12.3073 31.9358 12.6523 32.1572 13.082C32.3785 13.4987 32.5218 13.974 32.5869 14.5078C32.652 15.0417 32.6845 15.5885 32.6845 16.1484V30.9922C32.6845 32.3464 32.4892 33.4922 32.0986 34.4297C31.708 35.3672 31.2132 36.1419 30.6142 36.7539C30.0283 37.3529 29.3772 37.8151 28.6611 38.1406C27.958 38.4661 27.2809 38.707 26.6298 38.8633C25.9918 39.0065 25.4319 39.0911 24.9502 39.1172C24.4684 39.1432 24.1559 39.1562 24.0127 39.1562Z" fill="white"/>
<path d="M54.0727 27.3828C54.0727 26.6341 54.1744 25.9993 54.3779 25.4785C54.5813 24.9577 54.8417 24.5223 55.1591 24.1724C55.4846 23.8224 55.8427 23.5498 56.2333 23.3545C56.6321 23.1592 57.0227 23.0127 57.4052 22.915C57.7877 22.8174 58.1417 22.7563 58.4672 22.7319C58.8009 22.7075 59.0613 22.6953 59.2485 22.6953C59.4357 22.6953 59.692 22.7075 60.0175 22.7319C60.343 22.7563 60.6889 22.8174 61.0551 22.915C61.4295 23.0127 61.8038 23.1592 62.1782 23.3545C62.5607 23.5498 62.9024 23.8224 63.2036 24.1724C63.5128 24.5223 63.7651 24.9577 63.9604 25.4785C64.1557 25.9993 64.2534 26.6341 64.2534 27.3828V30.4102C64.2534 31.1589 64.1557 31.7936 63.9604 32.3145C63.7651 32.8353 63.5128 33.2707 63.2036 33.6206C62.9024 33.9705 62.5607 34.2432 62.1782 34.4385C61.8038 34.6338 61.4295 34.7803 61.0551 34.8779C60.6889 34.9756 60.343 35.0366 60.0175 35.061C59.692 35.0854 59.4357 35.0977 59.2485 35.0977C59.0613 35.0977 58.8009 35.0854 58.4672 35.061C58.1417 35.0366 57.7877 34.9756 57.4052 34.8779C57.0227 34.7803 56.6321 34.6338 56.2333 34.4385C55.8427 34.2432 55.4846 33.9705 55.1591 33.6206C54.8417 33.2707 54.5813 32.8353 54.3779 32.3145C54.1744 31.7936 54.0727 31.1589 54.0727 30.4102V27.3828ZM57.8325 31.2646C57.8406 31.5007 57.8976 31.7082 58.0034 31.8872C58.0929 32.05 58.2312 32.1965 58.4184 32.3267C58.6137 32.4487 58.8904 32.5098 59.2485 32.5098C59.5903 32.5098 59.8507 32.4487 60.0297 32.3267C60.2169 32.1965 60.3552 32.05 60.4448 31.8872C60.5424 31.7082 60.5994 31.5007 60.6157 31.2646V26.8457C60.5994 26.6016 60.5424 26.3778 60.4448 26.1743C60.3552 26.0116 60.2169 25.861 60.0297 25.7227C59.8507 25.5762 59.5903 25.5029 59.2485 25.5029C58.8904 25.5029 58.6137 25.5762 58.4184 25.7227C58.2312 25.861 58.0929 26.0116 58.0034 26.1743C57.8976 26.3778 57.8406 26.6016 57.8325 26.8457V31.2646Z" fill="#246EB9"/>
<path d="M67.1703 20.6934C67.1703 20.3434 67.1866 20.0016 67.2192 19.668C67.2599 19.3262 67.3412 19.0291 67.4633 18.7769C67.5935 18.5164 67.7807 18.3089 68.0248 18.1543C68.269 17.9915 68.5945 17.9102 69.0014 17.9102C69.4246 17.9102 69.7623 17.9915 70.0146 18.1543C70.2669 18.3089 70.454 18.5164 70.5761 18.7769C70.7063 19.0291 70.7877 19.3262 70.8203 19.668C70.8609 20.0016 70.8813 20.3434 70.8813 20.6934V24.8682C70.9545 24.624 71.0563 24.3799 71.1865 24.1357C71.3248 23.8916 71.4998 23.6719 71.7114 23.4766C71.923 23.2812 72.1752 23.1226 72.4682 23.0005C72.7693 22.8784 73.1192 22.8174 73.518 22.8174C73.9656 22.8174 74.4132 22.8906 74.8608 23.0371C75.3084 23.1836 75.7112 23.4277 76.0693 23.7695C76.4273 24.1032 76.7162 24.5467 76.936 25.1001C77.1638 25.6453 77.2778 26.3249 77.2778 27.1387V30.6787C77.2778 31.4844 77.1638 32.1639 76.936 32.7173C76.7162 33.2625 76.4273 33.7061 76.0693 34.0479C75.7112 34.3896 75.3084 34.6338 74.8608 34.7803C74.4132 34.9268 73.9656 35 73.518 35C73.1192 35 72.7693 34.939 72.4682 34.8169C72.1752 34.6867 71.923 34.5239 71.7114 34.3286C71.4998 34.1333 71.3248 33.9136 71.1865 33.6694C71.0563 33.4253 70.9545 33.1852 70.8813 32.9492C70.8813 33.112 70.865 33.3114 70.8325 33.5474C70.808 33.7834 70.7348 34.0112 70.6127 34.231C70.4907 34.4425 70.3035 34.6257 70.0512 34.7803C69.7989 34.9268 69.449 35 69.0014 35C68.562 35 68.2202 34.9227 67.976 34.7681C67.7319 34.6053 67.5488 34.3937 67.4267 34.1333C67.3046 33.8729 67.2314 33.5799 67.207 33.2544C67.1826 32.9207 67.1703 32.583 67.1703 32.2412V20.6934ZM73.518 27.4072C73.518 27.1956 73.5099 26.9881 73.4936 26.7847C73.4773 26.5731 73.4326 26.3859 73.3593 26.2231C73.2861 26.0604 73.1762 25.9302 73.0297 25.8325C72.8914 25.7267 72.6961 25.6738 72.4438 25.6738C72.1264 25.6738 71.866 25.7756 71.6625 25.979C71.4591 26.1825 71.3004 26.4307 71.1865 26.7236C71.0725 27.0166 70.9911 27.3299 70.9423 27.6636C70.9016 27.9891 70.8813 28.278 70.8813 28.5303C70.8894 29.1569 70.9138 29.6981 70.9545 30.1538C71.0034 30.6014 71.0847 30.9757 71.1987 31.2769C71.3126 31.5698 71.4672 31.7896 71.6625 31.936C71.866 32.0744 72.1264 32.1436 72.4438 32.1436C72.6961 32.1436 72.8914 32.0947 73.0297 31.9971C73.1762 31.8913 73.2861 31.7529 73.3593 31.582C73.4326 31.4111 73.4773 31.2199 73.4936 31.0083C73.5099 30.7967 73.518 30.5811 73.518 30.3613V27.4072Z" fill="#246EB9"/>
<path d="M82.0746 22.793V20.6445C82.0746 20.3027 82.0909 19.9691 82.1235 19.6436C82.1642 19.318 82.2496 19.0291 82.3798 18.7769C82.51 18.5164 82.6972 18.3089 82.9413 18.1543C83.1855 17.9915 83.5151 17.9102 83.9301 17.9102C84.337 17.9102 84.6625 17.9915 84.9067 18.1543C85.1508 18.3089 85.3339 18.5164 85.456 18.7769C85.5862 19.0291 85.6676 19.318 85.7001 19.6436C85.7408 19.9691 85.7612 20.3027 85.7612 20.6445V22.793H86.7621C86.9737 22.793 87.1853 22.8052 87.3969 22.8296C87.6085 22.8459 87.7957 22.9028 87.9584 23.0005C88.1293 23.0981 88.2636 23.2446 88.3613 23.4399C88.4671 23.6353 88.52 23.9079 88.52 24.2578C88.52 24.5915 88.4671 24.856 88.3613 25.0513C88.2636 25.2466 88.1293 25.3931 87.9584 25.4907C87.7957 25.5884 87.6085 25.6535 87.3969 25.686C87.1853 25.7104 86.9737 25.7227 86.7621 25.7227H85.7612V29.9951C85.7612 30.1579 85.7652 30.3328 85.7734 30.52C85.7897 30.6991 85.8344 30.8659 85.9077 31.0205C85.9809 31.1751 86.0908 31.3053 86.2372 31.4111C86.3837 31.5088 86.5912 31.5576 86.8598 31.5576C87.1528 31.5576 87.401 31.582 87.6044 31.6309C87.816 31.6715 87.9869 31.7489 88.1171 31.8628C88.2555 31.9767 88.3572 32.1354 88.4223 32.3389C88.4874 32.5423 88.52 32.8027 88.52 33.1201C88.52 33.4456 88.4426 33.7264 88.288 33.9624C88.1415 34.1984 87.9422 34.3937 87.6899 34.5483C87.4376 34.703 87.1446 34.8169 86.811 34.8901C86.4773 34.9634 86.1274 35 85.7612 35C85.1834 35 84.687 34.939 84.2719 34.8169C83.865 34.6948 83.5232 34.5239 83.2465 34.3042C82.978 34.0763 82.7623 33.8078 82.5995 33.4985C82.4449 33.1812 82.3269 32.8271 82.2455 32.4365C82.1723 32.0459 82.1235 31.6268 82.0991 31.1792C82.0828 30.7235 82.0746 30.2474 82.0746 29.751V25.7227H81.3911C81.1795 25.7227 80.9679 25.7104 80.7563 25.686C80.5528 25.6535 80.3697 25.5884 80.207 25.4907C80.0442 25.3931 79.9099 25.2466 79.8041 25.0513C79.7065 24.856 79.6577 24.5915 79.6577 24.2578C79.6577 23.9079 79.7065 23.6353 79.8041 23.4399C79.9099 23.2446 80.0442 23.0981 80.207 23.0005C80.3697 22.9028 80.5528 22.8459 80.7563 22.8296C80.9679 22.8052 81.1795 22.793 81.3911 22.793H82.0746Z" fill="#246EB9"/>
<path d="M99.4448 24.624C99.4448 25.2588 99.2861 25.7227 98.9687 26.0156C98.6594 26.3086 98.2159 26.4551 97.6381 26.4551C97.5567 26.4551 97.4387 26.4632 97.2841 26.4795C97.1376 26.4876 96.9789 26.5202 96.808 26.5771C96.6371 26.626 96.4622 26.7033 96.2831 26.8091C96.1122 26.9067 95.9536 27.0451 95.8071 27.2241C95.6606 27.395 95.5426 27.6147 95.4531 27.8833C95.3635 28.1519 95.3188 28.4733 95.3188 28.8477V32.3389C95.3188 32.6725 95.2984 32.998 95.2578 33.3154C95.2252 33.6328 95.1438 33.9176 95.0136 34.1699C94.8834 34.4141 94.6962 34.6134 94.4521 34.7681C94.2079 34.9227 93.8784 35 93.4633 35C93.0564 35 92.735 34.9227 92.499 34.7681C92.263 34.6134 92.0799 34.4141 91.9496 34.1699C91.8276 33.9176 91.7462 33.6328 91.7055 33.3154C91.673 32.998 91.6567 32.6725 91.6567 32.3389V25.5029C91.6567 25.1611 91.673 24.8315 91.7055 24.5142C91.7462 24.1886 91.8276 23.8997 91.9496 23.6475C92.0799 23.3952 92.263 23.1958 92.499 23.0493C92.735 22.8947 93.0564 22.8174 93.4633 22.8174C93.8784 22.8174 94.1957 22.911 94.4155 23.0981C94.6433 23.2772 94.8102 23.5132 94.916 23.8062C95.0217 24.091 95.0828 24.4124 95.0991 24.7705C95.1153 25.1204 95.1235 25.4622 95.1235 25.7959H95.3188C95.4327 25.3402 95.5833 24.9292 95.7704 24.563C95.9576 24.1886 96.1651 23.8753 96.393 23.623C96.6209 23.3626 96.865 23.1632 97.1254 23.0249C97.3858 22.8866 97.6463 22.8174 97.9067 22.8174C98.2241 22.8174 98.4804 22.854 98.6757 22.9272C98.8792 22.9924 99.0379 23.0981 99.1518 23.2446C99.2657 23.3911 99.343 23.5783 99.3837 23.8062C99.4244 24.034 99.4448 24.3066 99.4448 24.624Z" fill="#246EB9"/>
<path d="M111.346 32.2412C111.346 32.583 111.334 32.9207 111.31 33.2544C111.285 33.5799 111.212 33.8729 111.09 34.1333C110.968 34.3937 110.785 34.6053 110.54 34.7681C110.296 34.9227 109.955 35 109.515 35C109.067 35 108.718 34.9268 108.465 34.7803C108.213 34.6257 108.026 34.4425 107.904 34.231C107.782 34.0112 107.704 33.7834 107.672 33.5474C107.647 33.3114 107.635 33.112 107.635 32.9492C107.562 33.1852 107.456 33.4253 107.318 33.6694C107.188 33.9136 107.017 34.1333 106.805 34.3286C106.594 34.5239 106.337 34.6867 106.036 34.8169C105.743 34.939 105.397 35 104.998 35C104.551 35 104.103 34.9268 103.656 34.7803C103.208 34.6338 102.805 34.3896 102.447 34.0479C102.089 33.7061 101.796 33.2625 101.568 32.7173C101.349 32.1639 101.239 31.4844 101.239 30.6787V27.1387C101.239 26.3249 101.349 25.6453 101.568 25.1001C101.796 24.5467 102.089 24.1032 102.447 23.7695C102.805 23.4277 103.208 23.1836 103.656 23.0371C104.103 22.8906 104.551 22.8174 104.998 22.8174C105.397 22.8174 105.743 22.8784 106.036 23.0005C106.337 23.1226 106.594 23.2812 106.805 23.4766C107.017 23.6719 107.188 23.8916 107.318 24.1357C107.456 24.3799 107.562 24.624 107.635 24.8682C107.635 24.4613 107.692 24.1235 107.806 23.855C107.92 23.5864 108.067 23.3748 108.246 23.2202C108.425 23.0575 108.624 22.9476 108.844 22.8906C109.072 22.8255 109.295 22.793 109.515 22.793C109.922 22.793 110.247 22.8743 110.492 23.0371C110.736 23.1917 110.919 23.3993 111.041 23.6597C111.171 23.9119 111.253 24.209 111.285 24.5508C111.326 24.8844 111.346 25.2262 111.346 25.5762V32.2412ZM104.998 30.3613C104.998 30.5811 105.007 30.7967 105.023 31.0083C105.039 31.2199 105.084 31.4111 105.157 31.582C105.23 31.7529 105.336 31.8913 105.475 31.9971C105.621 32.0947 105.82 32.1436 106.073 32.1436C106.39 32.1436 106.646 32.0744 106.842 31.936C107.045 31.7896 107.204 31.5698 107.318 31.2769C107.432 30.9757 107.509 30.6014 107.55 30.1538C107.599 29.6981 107.627 29.1569 107.635 28.5303C107.635 28.278 107.611 27.9891 107.562 27.6636C107.521 27.3299 107.444 27.0166 107.33 26.7236C107.216 26.4307 107.057 26.1825 106.854 25.979C106.65 25.7756 106.39 25.6738 106.073 25.6738C105.82 25.6738 105.621 25.7267 105.475 25.8325C105.336 25.9302 105.23 26.0604 105.157 26.2231C105.084 26.3859 105.039 26.5731 105.023 26.7847C105.007 26.9881 104.998 27.1956 104.998 27.4072V30.3613Z" fill="#246EB9"/>
<path d="M117.901 30.7764C117.901 30.9066 117.913 31.0734 117.937 31.2769C117.962 31.4722 118.019 31.6675 118.108 31.8628C118.198 32.05 118.328 32.2127 118.499 32.3511C118.678 32.4894 118.918 32.5586 119.219 32.5586C119.577 32.5586 119.858 32.5179 120.061 32.4365C120.265 32.3551 120.415 32.2453 120.513 32.1069C120.611 31.9604 120.672 31.7936 120.696 31.6064C120.721 31.4111 120.733 31.2077 120.733 30.9961C120.733 30.8903 120.749 30.7723 120.782 30.6421C120.822 30.5037 120.912 30.3776 121.05 30.2637C121.189 30.1416 121.392 30.0439 121.661 29.9707C121.937 29.8893 122.312 29.8486 122.784 29.8486C123.215 29.8486 123.549 29.8975 123.785 29.9951C124.021 30.0928 124.192 30.2108 124.297 30.3491C124.411 30.4793 124.476 30.6177 124.493 30.7642C124.509 30.9025 124.517 31.0124 124.517 31.0938C124.517 31.6146 124.436 32.0744 124.273 32.4731C124.118 32.8638 123.907 33.2056 123.638 33.4985C123.37 33.7834 123.06 34.0234 122.71 34.2188C122.36 34.4141 121.986 34.5687 121.587 34.6826C121.197 34.7965 120.798 34.8779 120.391 34.9268C119.984 34.9756 119.594 35 119.219 35C118.576 35 117.954 34.9146 117.352 34.7437C116.749 34.5728 116.212 34.3042 115.74 33.938C115.276 33.5718 114.902 33.1038 114.617 32.5342C114.332 31.9564 114.19 31.2646 114.19 30.459V27.6025C114.19 26.8294 114.279 26.1743 114.458 25.6372C114.646 25.1001 114.886 24.6525 115.179 24.2944C115.472 23.9364 115.801 23.6597 116.167 23.4644C116.534 23.2609 116.904 23.1104 117.278 23.0127C117.653 22.915 118.007 22.854 118.34 22.8296C118.682 22.8052 118.975 22.793 119.219 22.793C119.943 22.793 120.574 22.854 121.111 22.9761C121.657 23.0981 122.124 23.2609 122.515 23.4644C122.906 23.6678 123.227 23.9038 123.479 24.1724C123.74 24.4328 123.943 24.7095 124.09 25.0024C124.236 25.2954 124.338 25.5884 124.395 25.8813C124.46 26.1743 124.493 26.4469 124.493 26.6992C124.493 26.8294 124.484 26.984 124.468 27.1631C124.452 27.334 124.387 27.5008 124.273 27.6636C124.167 27.8182 123.996 27.9525 123.76 28.0664C123.524 28.1803 123.191 28.2373 122.759 28.2373C122.605 28.2373 122.409 28.2332 122.173 28.2251C121.945 28.2088 121.722 28.1641 121.502 28.0908C121.282 28.0176 121.095 27.9036 120.94 27.749C120.786 27.5944 120.708 27.3747 120.708 27.0898C120.708 26.8945 120.696 26.7074 120.672 26.5283C120.656 26.3411 120.599 26.1784 120.501 26.04C120.403 25.9017 120.253 25.7918 120.049 25.7104C119.854 25.6209 119.577 25.5762 119.219 25.5762C118.918 25.5762 118.678 25.625 118.499 25.7227C118.328 25.8203 118.198 25.9424 118.108 26.0889C118.019 26.2354 117.962 26.39 117.937 26.5527C117.913 26.7155 117.901 26.862 117.901 26.9922V30.7764Z" fill="#246EB9"/>
<path d="M127.703 20.6201C127.703 20.2783 127.715 19.9447 127.739 19.6191C127.764 19.2936 127.833 19.0047 127.947 18.7524C128.061 18.5002 128.232 18.2967 128.459 18.1421C128.695 17.9875 129.021 17.9102 129.436 17.9102C129.859 17.9102 130.185 17.9875 130.413 18.1421C130.649 18.2967 130.819 18.5002 130.925 18.7524C131.039 19.0047 131.108 19.2936 131.133 19.6191C131.157 19.9447 131.169 20.2783 131.169 20.6201V25.4297H131.365L133.879 22.4756C134.026 22.3047 134.197 22.1826 134.392 22.1094C134.587 22.028 134.791 21.9873 135.002 21.9873C135.206 21.9873 135.409 22.028 135.613 22.1094C135.824 22.1826 136.007 22.2925 136.162 22.439C136.325 22.5773 136.455 22.7482 136.553 22.9517C136.658 23.147 136.711 23.3708 136.711 23.623C136.711 23.9486 136.597 24.2497 136.37 24.5264L134.172 27.1143L136.565 31.6797C136.711 31.9727 136.838 32.2697 136.943 32.5708C137.049 32.8638 137.102 33.1445 137.102 33.4131C137.102 33.6735 137.045 33.9054 136.931 34.1089C136.817 34.3123 136.667 34.4832 136.479 34.6216C136.3 34.7518 136.097 34.8535 135.869 34.9268C135.649 34.9919 135.434 35.0244 135.222 35.0244C134.954 35.0244 134.713 34.9593 134.502 34.8291C134.29 34.6989 134.103 34.5402 133.94 34.353C133.786 34.1577 133.647 33.9502 133.525 33.7305C133.403 33.5107 133.302 33.3073 133.22 33.1201L131.853 30.2148H131.169V32.2656C131.169 32.6074 131.157 32.9451 131.133 33.2788C131.108 33.6043 131.039 33.8973 130.925 34.1577C130.819 34.41 130.649 34.6134 130.413 34.7681C130.185 34.9227 129.859 35 129.436 35C129.021 35 128.695 34.9227 128.459 34.7681C128.232 34.6134 128.061 34.41 127.947 34.1577C127.833 33.8973 127.764 33.6043 127.739 33.2788C127.715 32.9451 127.703 32.6074 127.703 32.2656V20.6201Z" fill="#246EB9"/>
</svg>
